<?xml version="1.0" standalone="no"?>
<!DOCTYPE svg PUBLIC "-//W3C//DTD SVG 20010904//EN"
 "http://www.w3.org/TR/2001/REC-SVG-20010904/DTD/svg10.dtd">
<svg version="1.0" xmlns="http://www.w3.org/2000/svg"
 width="512.000000pt" height="512.000000pt" viewBox="0 0 512.000000 512.000000"
 preserveAspectRatio="xMidYMid meet">
<metadata>
Created by potrace 1.14, written by Peter Selinger 2001-2017
</metadata>
<g transform="translate(0.000000,512.000000) scale(0.100000,-0.100000)"
fill="#000000" stroke="none">
<path d="M2847 4863 c-4 -3 10 -18 31 -32 65 -44 89 -78 95 -136 5 -43 -9 -79
-42 -109 -25 -22 -21 -25 -51 38 -26 55 -131 168 -138 148 -2 -7 3 -28 12 -46
18 -38 29 -136 17 -155 -6 -10 -11 -5 -16 18 -3 17 -11 31 -16 31 -5 0 -9 6
-9 14 0 12 -31 43 -86 85 -5 4 -35 18 -66 29 l-57 21 1 -30 c1 -16 -1 -32 -4
-35 -3 -2 -24 3 -47 12 -46 18 -170 25 -172 9 -1 -5 21 -21 47 -35 38 -19 54
-36 73 -73 13 -26 21 -50 19 -53 -3 -2 -17 0 -32 6 -39 15 -76 13 -76 -4 0 -8
5 -18 11 -21 15 -10 30 -55 23 -67 -5 -7 -12 -4 -21 8 -11 15 -17 16 -32 7
-10 -7 -28 -9 -39 -6 -19 5 -21 2 -16 -28 3 -19 1 -52 -4 -74 l-9 -40 -11 28
c-18 42 -30 32 -27 -21 2 -30 -3 -62 -14 -87 l-17 -39 -21 52 c-12 29 -26 52
-31 52 -4 0 -8 -25 -7 -56 2 -42 -6 -78 -32 -146 -18 -49 -36 -112 -39 -141
-3 -29 -8 -54 -10 -56 -4 -4 -4 -4 -30 84 -11 37 -48 105 -96 178 -86 130
-106 168 -138 272 -42 137 -122 243 -187 252 -33 4 -42 1 -66 -27 -16 -17 -34
-46 -41 -63 -7 -18 -17 -41 -21 -52 -4 -11 -9 -24 -10 -30 -2 -5 -8 -30 -15
-55 -19 -72 -21 -80 -24 -185 -4 -100 13 -252 38 -340 2 -5 6 -23 11 -40 4
-16 18 -53 31 -81 12 -28 24 -60 26 -70 2 -11 8 -25 13 -33 15 -21 185 -191
191 -191 2 0 20 -16 40 -35 19 -19 32 -35 29 -35 -3 0 4 -9 16 -21 11 -11 18
-27 15 -35 -3 -8 0 -14 6 -14 6 0 9 -3 5 -6 -3 -4 1 -13 9 -21 8 -8 12 -18 9
-23 -3 -5 -1 -11 4 -14 12 -8 3 -98 -12 -112 -3 -4 -2 -14 3 -24 5 -10 6 -20
3 -24 -8 -8 -10 -125 -2 -120 3 2 7 -18 8 -44 1 -26 6 -49 11 -50 6 -2 8 -8 5
-13 -4 -5 2 -25 11 -45 13 -28 14 -38 5 -44 -7 -4 -12 -10 -12 -14 5 -37 -2
-88 -14 -100 -9 -8 -15 -19 -14 -23 1 -4 -4 -21 -11 -38 -15 -33 -16 -40 -18
-73 -1 -14 -6 -21 -13 -16 -8 4 -9 0 -4 -15 3 -12 2 -21 -4 -21 -10 0 -18 -34
-24 -100 -2 -20 -6 -41 -10 -47 -4 -6 -1 -13 5 -16 10 -3 10 -7 1 -17 -6 -7
-9 -19 -6 -28 4 -10 2 -13 -5 -8 -8 5 -10 2 -6 -9 4 -8 1 -22 -6 -30 -7 -9
-10 -18 -7 -21 3 -4 0 -13 -8 -21 -15 -15 -21 -53 -8 -53 3 0 15 7 25 17 10 9
21 14 24 10 11 -11 4 -218 -11 -307 -4 -19 -8 -48 -10 -65 -3 -16 -7 -42 -11
-57 -4 -19 -2 -28 5 -28 7 0 9 4 6 10 -3 5 1 10 11 10 13 0 14 -3 5 -13 -6 -8
-7 -18 -3 -22 4 -5 0 -4 -8 0 -13 8 -13 6 -2 -7 11 -14 10 -18 -5 -27 -14 -8
-15 -10 -3 -11 13 0 13 -1 0 -10 -8 -5 -10 -10 -3 -10 6 0 9 -9 6 -20 -3 -11
-10 -17 -17 -13 -7 4 -6 1 1 -9 7 -8 11 -17 8 -19 -2 -3 -7 -30 -9 -60 -14
-150 -18 -185 -24 -194 -9 -15 -9 -65 0 -65 5 0 5 -8 0 -17 -5 -10 -9 -36 -9
-58 -1 -50 -5 -68 -18 -77 -6 -5 -5 -8 4 -8 11 0 11 -3 1 -15 -7 -9 -8 -15 -2
-15 10 0 11 -17 1 -35 -3 -5 -5 -25 -4 -42 0 -18 -2 -33 -6 -33 -3 0 -5 -11
-4 -25 2 -18 -2 -25 -13 -25 -15 0 -15 -2 -2 -10 9 -6 11 -13 5 -17 -13 -10
-14 -76 -2 -84 6 -4 2 -40 -9 -85 -9 -44 -18 -83 -20 -89 -1 -5 -13 -43 -28
-84 -24 -70 -25 -75 -8 -87 9 -7 23 -14 30 -14 7 0 22 -8 33 -18 10 -11 32
-25 47 -32 15 -7 34 -16 42 -21 77 -44 140 -72 165 -73 17 -2 44 -10 60 -18
31 -16 95 -18 128 -4 12 6 17 4 17 -8 0 -27 91 -58 106 -35 3 5 17 1 32 -10
44 -31 108 -46 137 -33 14 6 25 8 25 3 0 -11 39 -21 105 -28 28 -3 57 -9 66
-13 15 -9 176 -6 214 3 11 3 34 8 50 12 17 4 36 12 43 18 7 6 66 11 130 11
101 1 124 4 167 25 27 13 56 24 65 26 16 2 20 21 9 45 -4 8 -9 31 -12 50 -3
19 -12 60 -20 89 -8 30 -13 64 -11 75 2 11 -3 39 -11 63 -8 24 -17 74 -19 111
-3 37 -12 91 -21 120 -14 47 -14 54 0 68 19 19 19 16 -5 60 -44 78 -68 204
-39 204 14 0 9 20 -36 145 -20 55 -36 102 -36 105 1 4 -11 46 -25 90 -3 8 -5
17 -5 20 0 3 -7 12 -15 21 -16 18 -27 59 -15 59 11 0 51 -39 51 -50 0 -34 111
-108 185 -124 68 -14 186 -5 231 18 64 33 177 165 189 220 1 6 7 24 13 39 7
16 12 32 12 36 0 4 11 21 25 37 29 34 42 90 27 114 -15 24 -21 70 -26 180 -3
52 -10 108 -16 125 -22 57 -43 100 -65 130 -25 34 -40 75 -28 76 57 5 107 45
120 97 3 15 14 41 24 59 16 28 34 83 45 138 9 42 17 233 11 257 -7 26 -61 58
-100 58 -47 0 -62 12 -81 58 -17 39 -143 182 -162 182 -3 0 -29 24 -59 53 -55
54 -63 72 -45 105 5 9 17 35 26 57 18 42 90 145 109 157 22 13 96 115 100 138
2 12 21 49 43 83 35 57 74 131 78 150 1 4 3 9 4 12 1 3 4 10 5 15 1 6 3 11 5
13 14 17 53 264 52 332 0 61 -31 116 -60 110 -9 -2 -20 -4 -23 -4 -12 -2 -65
-59 -102 -112 -22 -30 -55 -64 -75 -77 -21 -13 -53 -44 -72 -69 -40 -54 -76
-74 -91 -52 -16 23 -2 79 26 104 32 31 32 47 0 39 -24 -6 -33 4 -18 20 21 20
18 77 -6 129 -19 41 -64 97 -79 97 -5 0 -23 24 -42 53 -50 79 -160 161 -265
197 -11 4 -33 13 -48 19 -32 13 -51 14 -60 4z m878 -1990 c-2 -21 -8 -51 -13
-68 -5 -16 -8 -38 -6 -47 1 -10 -1 -18 -5 -18 -4 0 -8 -10 -8 -22 -1 -13 -6
-32 -11 -43 -33 -72 -42 -98 -42 -115 0 -14 -9 -21 -34 -25 -49 -10 -76 8 -76
50 0 18 -3 40 -6 48 -3 8 1 21 9 28 30 30 47 68 50 107 3 49 8 55 44 56 25 1
28 5 28 36 0 35 5 38 67 49 4 0 5 -16 3 -36z"/>
</g>
</svg>
